<svg width="51" height="60" viewBox="0 0 51 60" fill="none" xmlns="http://www.w3.org/2000/svg">
<path d="M26.3046 33.4709C25.8643 33.0614 25.1869 33.0614 24.7804 33.4709C24.374 33.8803 24.374 34.5627 24.7804 35.0062C25.1869 35.4157 25.8643 35.4157 26.3046 35.0062C26.7449 34.5968 26.7449 33.9144 26.3046 33.4709Z" fill="#660033"/>
<path d="M25.5597 11.737C13.2644 11.737 3.27246 21.8021 3.27246 34.2215C3.27246 46.6409 13.2644 56.706 25.5935 56.706C37.9226 56.706 47.9146 46.6409 47.9146 34.2215C47.8807 21.8021 37.8887 11.7711 25.5597 11.737ZM24.5097 13.8865C24.5097 13.3065 24.9839 12.8288 25.5597 12.8288C26.1355 12.8288 26.6097 13.3065 26.6097 13.8865V18.1855C26.6097 18.7655 26.1355 19.2432 25.5597 19.2432C24.9839 19.2432 24.5097 18.7655 24.5097 18.1855V13.8865ZM9.64023 35.2792H5.37247C4.79666 35.2792 4.32247 34.8015 4.32247 34.2215C4.32247 33.6415 4.79666 33.1638 5.37247 33.1638H9.64023C10.216 33.1638 10.6902 33.6415 10.6902 34.2215C10.6902 34.8015 10.216 35.2792 9.64023 35.2792ZM26.6435 54.5565C26.6435 55.1365 26.1693 55.6142 25.5935 55.6142C25.0177 55.6142 24.5435 55.1365 24.5435 54.5565V50.2575C24.5435 49.6775 25.0177 49.1998 25.5935 49.1998C26.1693 49.1998 26.6435 49.6775 26.6435 50.2575V54.5565ZM28.7774 34.2215C28.7774 35.8592 27.5581 37.224 25.9661 37.4287C24.3403 37.6334 22.85 36.5416 22.4774 34.9721C22.1048 33.3685 22.9855 31.7649 24.5097 31.219V23.5081C24.5097 22.9281 24.9839 22.4504 25.5597 22.4504C26.1355 22.4504 26.6097 22.9281 26.6097 23.5081V31.1849C26.7113 31.219 26.8129 31.2531 26.9145 31.3214L38.6 19.5503C39.0065 19.1408 39.6839 19.1408 40.0904 19.5503C40.4968 19.9597 40.4968 20.6421 40.0904 21.0515L28.4387 32.8567C28.6419 33.2662 28.7774 33.7438 28.7774 34.2215ZM45.7807 35.2792H41.513C40.9371 35.2792 40.463 34.8015 40.463 34.2215C40.463 33.6415 40.9371 33.1638 41.513 33.1638H45.7807C46.3565 33.1638 46.8307 33.6415 46.8307 34.2215C46.8307 34.8015 46.3565 35.2792 45.7807 35.2792Z" fill="#660033"/>
<path d="M27.6257 8.63214C27.0499 8.59802 26.6096 8.08624 26.6435 7.47209C26.6435 7.47209 26.6435 7.47209 26.6435 7.43797V3.17308C26.6435 2.59305 27.1177 2.11539 27.6935 2.11539H28.7435C29.0145 2.11539 29.2854 2.01303 29.4887 1.80831C29.6919 1.6036 29.8274 1.33065 29.8274 1.05769C29.8274 0.477668 29.3532 0 28.7774 0H22.3757C22.1048 0 21.8338 0.102357 21.6306 0.307072C21.4273 0.511787 21.2918 0.78474 21.2918 1.05769C21.2918 1.63772 21.766 2.11539 22.3419 2.11539H23.3919C23.9677 2.11539 24.4419 2.59305 24.4419 3.17308V7.47209C24.4757 8.05212 24.0354 8.5639 23.4596 8.63214C19.1241 8.97333 14.9241 10.4405 11.2999 12.897C11.266 12.9312 11.1982 12.9312 11.1644 12.9653C11.1305 12.9994 11.0966 12.9994 11.0628 12.9994C10.9612 13.0335 10.8257 13.0676 10.6902 13.0676C10.5547 13.0676 10.4531 13.0335 10.3515 12.9994C10.3176 12.9994 10.3176 12.9994 10.2837 12.9653C10.1821 12.9312 10.0805 12.8629 9.97889 12.7606C9.97889 12.7606 9.97889 12.7606 9.94502 12.7606L7.47242 10.2699C7.43855 10.2357 7.40468 10.1675 7.37081 10.1334C7.30307 10.0651 7.2692 9.99691 7.23533 9.92867C7.23533 9.89455 7.20146 9.82631 7.20146 9.79219C7.16759 9.72396 7.16758 9.6216 7.16758 9.55336C7.16758 9.451 7.20146 9.38276 7.20146 9.31453C7.20146 9.28041 7.20146 9.21217 7.23533 9.17805C7.2692 9.10981 7.30307 9.04157 7.37081 9.00745C7.40468 8.93922 7.43855 8.9051 7.47242 8.83686C7.87888 8.42743 7.87888 7.74505 7.47242 7.33562C7.2692 7.1309 6.99823 7.02854 6.72726 7.02854C6.45629 7.02854 6.18532 7.1309 5.9821 7.33562L2.96757 10.3722C2.56111 10.7816 2.56111 11.464 2.96757 11.8735C3.17079 12.0782 3.44176 12.1805 3.71273 12.1805C3.9837 12.1805 4.25467 12.0782 4.4579 11.8735C4.55951 11.7711 4.66112 11.7029 4.76274 11.6687C4.99983 11.5664 5.2708 11.5323 5.5079 11.6346C5.67726 11.6687 5.81274 11.7711 5.94822 11.8735L8.08211 14.023C8.11598 14.0571 8.14985 14.1253 8.18372 14.1936C8.21759 14.2618 8.25146 14.33 8.28533 14.3642C8.3192 14.4324 8.3192 14.5006 8.3192 14.5689C8.35307 14.6371 8.35307 14.7054 8.35307 14.7736C8.35307 14.8418 8.3192 14.9101 8.3192 14.9783C8.3192 15.0465 8.28533 15.1148 8.28533 15.183C8.25146 15.2513 8.21759 15.2854 8.18372 15.3536C8.14985 15.4219 8.11598 15.456 8.08211 15.5242C-0.724386 23.8152 -2.55343 37.1899 3.67886 47.5962C9.91115 58.0025 22.5112 62.5745 33.8919 58.5484C45.2726 54.5565 52.3178 43.0584 50.7936 31.0143C49.3371 18.902 39.6161 9.58748 27.6257 8.63214ZM25.5596 58.8555C12.045 58.8555 1.10465 47.835 1.10465 34.2215C1.10465 20.608 12.045 9.58748 25.5596 9.58748C39.0742 9.58748 50.0146 20.608 50.0146 34.2215C50.0146 47.8009 39.0742 58.8214 25.5596 58.8555Z" fill="#660033"/>
</svg>
