<svg width="26" height="24" viewBox="0 0 26 24" fill="none" xmlns="http://www.w3.org/2000/svg">
<path d="M24.5176 0.298645C23.2245 -0.378537 21.5004 0.12935 20.8108 1.48371L13.0523 16.8049L4.60412 9.10201C4.08689 8.59412 3.39725 8.34018 2.6214 8.42482C1.93175 8.42482 1.24211 8.76341 0.724878 9.2713C-0.309588 10.3717 -0.223382 12.0647 0.897289 13.0804L11.8454 23.0689C12.0178 23.3228 12.2764 23.4921 12.535 23.6614C12.9661 23.8307 13.3971 24 13.8281 24C14.0867 24 14.3453 24 14.604 23.9154C15.2936 23.7461 15.897 23.2382 16.2419 22.561L25.6383 3.9385C26.4141 2.58413 25.8969 0.975827 24.5176 0.298645Z" fill="#660033"/>
</svg>
