<svg width="19" height="31" viewBox="0 0 19 31" fill="none" xmlns="http://www.w3.org/2000/svg">
<path d="M16.6984 1.14417L5.69052 9.30619H0V21.9202H5.69052L16.4496 29.8658C16.4496 29.8658 18.4087 31.5044 18.4087 29.804C18.4087 28.1036 18.4087 2.72092 18.4087 1.17509C18.4398 -0.154333 16.6984 1.14417 16.6984 1.14417ZM14.9571 20.4053C14.8327 20.529 14.6772 20.5908 14.5217 20.5908C14.3662 20.5908 14.2108 20.529 14.0864 20.4053L10.1372 16.448L6.15696 20.4053C6.03257 20.529 5.87709 20.5908 5.72162 20.5908C5.56614 20.5908 5.41066 20.529 5.28628 20.4053C5.16189 20.2816 5.0997 20.1271 5.0997 19.9725C5.0997 19.8179 5.16189 19.6633 5.28628 19.5396L9.23544 15.6132L5.28628 11.6559C5.16189 11.5322 5.0997 11.3776 5.0997 11.223C5.0997 11.0684 5.16189 10.9139 5.28628 10.7902C5.53504 10.5429 5.93929 10.5429 6.15696 10.7902L10.1061 14.7166L14.0553 10.7902C14.304 10.5429 14.7083 10.5429 14.926 10.7902C15.1747 11.0375 15.1747 11.4394 14.926 11.6559L11.0079 15.5823L14.9571 19.5087C15.2058 19.7561 15.2058 20.158 14.9571 20.4053Z" fill="#660033"/>
</svg>
