<svg width="31" height="29" viewBox="0 0 31 29" fill="none" xmlns="http://www.w3.org/2000/svg">
<g clip-path="url(#clip0_19_928)">
<path d="M28.3999 0.400005C26.8999 -0.399995 24.8999 0.200005 24.0999 1.8L15.0999 19.9L5.29986 10.8C4.69986 10.2 3.89986 9.9 2.99986 10C2.19986 10 1.39986 10.4 0.799857 11C-0.400143 12.3 -0.300143 14.3 0.999857 15.5L13.6999 27.3C13.8999 27.6 14.1999 27.8 14.4999 28C14.9999 28.2 15.4999 28.4 15.9999 28.4C16.2999 28.4 16.5999 28.4 16.8999 28.3C17.6999 28.1 18.3999 27.5 18.7999 26.7L29.6999 4.7C30.5999 3.1 29.9999 1.2 28.3999 0.400005Z" fill="#006635"/>
</g>
<defs>
<clipPath id="clip0_19_928">
<rect width="30.1" height="28.3" fill="white"/>
</clipPath>
</defs>
</svg>
