<svg width="207" height="172" viewBox="0 0 207 172" fill="none" xmlns="http://www.w3.org/2000/svg">
<path d="M205.621 84.9C204.721 83.4 203.021 82.4 201.221 82.3C197.921 82.1 194.421 81.9 191.621 80.9C189.221 80 187.421 78.5 186.821 76.8C186.621 76.2 186.421 75.4 186.321 74.5C186.221 74.2 186.221 73.8 186.121 73.5V73.4C185.921 72.4 185.621 71.1 185.021 69.8C183.421 66.2 180.221 63.3 176.021 61.6C174.021 60.8 171.921 60.3 170.021 60C169.621 59.8 169.321 59.5 168.921 59.4C168.121 59.1 167.421 58.9 166.621 58.9C164.321 58.9 162.221 60.2 161.221 62.2C161.121 62.4 161.021 62.6 160.921 62.8L151.121 86.1C150.921 86.7 150.721 87.3 150.721 87.9L143.821 104.7L139.921 82L168.321 54C169.821 52.5 170.321 50.3 169.721 48.3C169.121 46.3 167.321 44.8 165.221 44.5L125.821 38.9L108.121 3.1C107.221 1.2 105.321 0 103.121 0C101.021 0 99.1209 1.2 98.1209 3.1L80.5209 38.9L41.0209 44.6C38.9209 44.9 37.2209 46.4 36.5209 48.4C35.9209 50.4 36.4209 52.6 37.9209 54.1L66.5209 82L62.6209 104.7L55.7209 87.9C55.7209 87.3 55.5209 86.7 55.3209 86.1L45.5209 62.8C45.4209 62.6 45.3209 62.4 45.2209 62.2C44.2209 60.2 42.1209 58.9 39.8209 58.9C39.0209 58.9 38.3209 59 37.6209 59.3C37.6209 59.3 37.6209 59.3 37.5209 59.3C37.1209 59.5 36.7209 59.7 36.4209 59.9C34.5209 60.2 32.4209 60.7 30.4209 61.5C26.2209 63.2 23.0209 66.1 21.4209 69.7C20.8209 71.1 20.5209 72.4 20.3209 73.3V73.4C20.2209 73.7 20.2209 74.1 20.1209 74.4C19.9209 75.3 19.8209 76.1 19.6209 76.7C19.0209 78.4 17.1209 79.9 14.8209 80.8C12.0209 81.8 8.52093 82 5.22093 82.2C3.42093 82.3 1.82093 83.3 0.820932 84.8C-0.0790682 86.3 -0.279068 88.2 0.420932 89.9L10.2209 113.2C11.1209 115.3 13.1209 116.6 15.3209 116.6C15.4209 116.6 15.5209 116.6 15.6209 116.6C19.5209 116.4 23.9209 116.1 28.3209 114.5C33.8209 112.5 38.0209 108.6 39.7209 103.9C39.9209 103.4 40.0209 103 40.1209 102.7V102.6C40.4209 101.7 40.5209 100.8 40.7209 100C40.9209 99 41.1209 98.1 41.3209 97.6C41.7209 96.6 42.9209 95.7 44.4209 95.1C44.8209 95 45.2209 94.8 45.6209 94.7L54.2209 115.6C43.9209 118.3 33.6209 121.8 23.3209 126.1C21.9209 126.7 20.8209 127.8 20.3209 129.2C19.8209 130.6 19.8209 132.2 20.5209 133.5C23.4209 139.6 26.2209 145.7 29.1209 151.8C31.1209 156 33.1209 160.2 35.1209 164.5L37.0209 168.6C37.9209 170.6 39.9209 171.8 42.0209 171.8C42.7209 171.8 43.4209 171.7 44.1209 171.4C64.5209 163.1 83.8209 159 103.321 159C122.821 159 142.221 163.1 162.521 171.4C163.221 171.7 163.921 171.8 164.621 171.8C166.721 171.8 168.721 170.6 169.621 168.6L177.821 151.3L178.021 150.8C179.421 147.9 180.721 145.1 182.021 142.2C183.321 139.3 184.721 136.5 186.021 133.6C186.621 132.2 186.721 130.7 186.221 129.3C185.721 127.9 184.621 126.8 183.221 126.2C173.021 121.9 162.621 118.3 152.321 115.7L160.921 94.8C161.321 94.9 161.721 95.1 162.121 95.2C163.621 95.8 164.721 96.7 165.121 97.7C165.421 98.3 165.521 99.2 165.721 100.1C165.821 100.9 166.021 101.8 166.321 102.7V102.8C166.421 103.1 166.521 103.6 166.721 104C168.421 108.7 172.621 112.6 178.121 114.6C182.521 116.2 186.921 116.5 190.821 116.7C190.921 116.7 191.021 116.7 191.121 116.7C193.321 116.7 195.321 115.4 196.221 113.3L206.021 90C206.721 88.3 206.621 86.5 205.621 84.9Z" fill="white"/>
<path d="M65.2211 127.5C65.0211 127.5 64.8211 127.4 64.7211 127.2L39.2211 65.2C39.1211 64.9 39.2211 64.6 39.5211 64.5C39.8211 64.4 40.1211 64.5 40.2211 64.8L65.7211 126.8C65.8211 127.1 65.7211 127.4 65.4211 127.5C65.4211 127.4 65.3211 127.5 65.2211 127.5Z" fill="#925DC3"/>
<path d="M50.2213 88.2C47.5213 88.6 44.7213 88.9 42.2213 90C39.7213 91 37.3213 92.8 36.2213 95.3C35.4213 97.1 35.3213 99.2 34.7213 101.1C34.6213 101.4 34.5213 101.7 34.4213 102C33.1213 105.6 29.8213 108.1 26.3213 109.4C22.7213 110.7 18.9213 110.9 15.1213 111.2L5.32129 87.8C9.12129 87.6 12.9213 87.3 16.5213 86C20.0213 84.7 23.3213 82.2 24.6213 78.6C25.1213 77.3 25.3213 75.9 25.6213 74.5C25.8213 73.6 26.0213 72.8 26.4213 71.9C27.5213 69.4 29.9213 67.6 32.4213 66.6C34.9213 65.6 37.7213 65.2 40.4213 64.8L50.2213 88.2Z" fill="#FF617C"/>
<path d="M50.2211 88.2C47.5211 88.6 44.7211 88.9 42.2211 90C39.7211 91 37.3211 92.8 36.2211 95.3C35.4211 97.1 35.3211 99.2 34.7211 101.1C31.7211 92.2 28.6211 83.4 25.6211 74.5C25.8211 73.6 26.0211 72.8 26.4211 71.9C27.5211 69.4 29.9211 67.6 32.4211 66.6C34.9211 65.6 37.7211 65.2 40.4211 64.8L50.2211 88.2Z" fill="#ED3968"/>
<path d="M141.021 127.5C140.921 127.5 140.921 127.5 140.821 127.5C140.521 127.4 140.421 127.1 140.521 126.8L166.021 64.8C166.121 64.5 166.421 64.4 166.721 64.5C167.021 64.6 167.121 64.9 167.021 65.2L141.521 127.2C141.521 127.3 141.321 127.5 141.021 127.5Z" fill="#925DC3"/>
<path d="M156.121 88.2C158.821 88.6 161.621 88.9 164.121 90C166.621 91 169.021 92.8 170.121 95.3C170.921 97.1 171.021 99.2 171.621 101.1C171.721 101.4 171.821 101.7 171.921 102C173.221 105.6 176.521 108.1 180.021 109.4C183.621 110.7 187.421 110.9 191.221 111.2L201.021 87.9C197.221 87.7 193.421 87.4 189.821 86.1C186.321 84.8 183.021 82.3 181.721 78.7C181.221 77.4 181.021 76 180.721 74.6C180.521 73.7 180.321 72.9 179.921 72C178.821 69.5 176.421 67.7 173.921 66.7C171.421 65.7 168.621 65.3 165.921 64.9L156.121 88.2Z" fill="#FF617C"/>
<path d="M156.121 88.2C158.821 88.6 161.621 88.9 164.121 90C166.621 91 169.021 92.8 170.121 95.3C170.921 97.1 171.021 99.2 171.621 101.1C174.621 92.2 177.721 83.4 180.721 74.5C180.521 73.6 180.321 72.8 179.921 71.9C178.821 69.4 176.421 67.6 173.921 66.6C171.421 65.6 168.621 65.2 165.921 64.8L156.121 88.2Z" fill="#ED3968"/>
<path d="M103.121 5.5L122.121 43.9L164.521 50.1L133.821 80L141.021 122.2L103.121 102.3L65.2213 122.2L72.5213 80L41.8213 50.1L84.2213 43.9L103.121 5.5Z" fill="#FFC85E"/>
<path d="M103.121 5.5V70L122.121 43.9L103.121 5.5Z" fill="#FF8E3C"/>
<path d="M164.521 50.1L103.121 70L133.821 80L164.521 50.1Z" fill="#FF8E3C"/>
<path d="M141.021 122.2L103.121 70V102.3L141.021 122.2Z" fill="#FF8E3C"/>
<path d="M65.2217 122.2L103.122 70L72.5217 80L65.2217 122.2Z" fill="#FF8E3C"/>
<path d="M41.8213 50.1L103.121 70L84.2213 43.9L41.8213 50.1Z" fill="#FF8E3C"/>
<path d="M181.021 131.2C178.321 136.9 175.621 142.7 172.921 148.4C170.121 154.3 167.321 160.3 164.521 166.2C122.821 149.1 83.5213 149.1 41.8213 166.2C39.2213 160.6 36.5213 155 33.9213 149.4C31.0213 143.3 28.2213 137.2 25.3213 131.1C77.4213 109.2 128.921 109.2 181.021 131.2Z" fill="#FF617C"/>
<path d="M172.921 148.4C170.121 154.3 167.321 160.3 164.521 166.2C122.821 149.1 83.5209 149.1 41.8209 166.2C39.2209 160.6 36.5209 155 33.9209 149.4C77.4209 130.1 129.121 129.7 172.921 148.4Z" fill="#ED3968"/>
<path d="M67.6214 147C66.8214 147.5 65.3214 148.4 63.3214 148.9C61.1214 149.4 59.1214 149.3 57.4214 148.2C55.9214 147.3 54.6214 145.5 54.1214 143.2C53.1214 138.8 55.4214 134.9 60.3214 133.8C62.0214 133.4 63.4214 133.5 64.1214 133.6L64.0214 135.3C63.1214 135.1 62.1214 135.1 60.6214 135.4C57.0214 136.2 55.2214 139 56.1214 142.7C57.0214 146.4 59.7214 148.1 63.1214 147.3C64.3214 147 65.1214 146.6 65.5214 146.3L64.5214 141.9L61.5214 142.6L61.1214 141.1L65.9214 140L67.6214 147Z" fill="white"/>
<path d="M82.0216 137.6C82.8216 142.7 80.1216 145.9 76.3216 146.5C72.4216 147.1 69.1216 144.5 68.4216 140C67.7216 135.3 70.1216 131.7 74.1216 131.1C78.2216 130.5 81.3216 133.2 82.0216 137.6ZM70.5216 139.6C71.0216 142.8 73.1216 145.4 76.2216 144.9C79.3216 144.4 80.5216 141.4 80.0216 138C79.5216 135 77.5216 132.2 74.3216 132.7C71.1216 133.2 70.0216 136.3 70.5216 139.6Z" fill="white"/>
<path d="M97.7217 136.4C98.1217 141.6 95.1217 144.5 91.3217 144.8C87.3217 145.1 84.3217 142.2 84.0217 137.6C83.7217 132.8 86.4217 129.5 90.4217 129.2C94.5217 129 97.4217 132 97.7217 136.4ZM86.0217 137.5C86.2217 140.7 88.2217 143.5 91.2217 143.3C94.3217 143.1 95.8217 140.1 95.6217 136.7C95.4217 133.7 93.6217 130.7 90.4217 130.9C87.2217 131.1 85.8217 134.2 86.0217 137.5Z" fill="white"/>
<path d="M100.721 129.2C101.921 129 103.321 128.9 104.821 129C107.621 129 109.621 129.7 110.921 131C112.221 132.3 113.021 134 112.921 136.4C112.921 138.9 112.121 140.9 110.621 142.2C109.221 143.6 106.821 144.3 103.921 144.2C102.521 144.2 101.421 144.1 100.421 144L100.721 129.2ZM102.421 142.6C102.921 142.7 103.621 142.7 104.421 142.7C108.621 142.8 110.921 140.5 110.921 136.4C111.021 132.8 109.021 130.6 104.921 130.5C103.921 130.5 103.121 130.6 102.621 130.7L102.421 142.6Z" fill="white"/>
<path d="M124.421 130.3L126.321 130.5L125.221 140.5C124.821 144.5 122.721 145.5 120.121 145.2C119.421 145.1 118.521 144.9 118.121 144.6L118.621 143.1C119.021 143.3 119.521 143.5 120.221 143.6C121.921 143.8 123.021 143.1 123.421 140.2L124.421 130.3Z" fill="white"/>
<path d="M141.721 140.4C140.821 145.5 137.222 147.7 133.422 147C129.522 146.3 127.321 142.8 128.021 138.3C128.821 133.6 132.321 131 136.321 131.7C140.421 132.5 142.421 136 141.721 140.4ZM130.122 138.7C129.522 141.9 130.821 145 133.821 145.5C136.821 146 139.022 143.5 139.622 140.2C140.122 137.2 139.122 133.9 135.922 133.3C132.822 132.8 130.722 135.4 130.122 138.7Z" fill="white"/>
<path d="M146.121 134.1C147.021 134.1 148.321 134.3 149.621 134.6C151.521 135.1 152.621 135.7 153.421 136.7C154.021 137.5 154.321 138.4 154.021 139.6C153.721 141 152.421 142 150.721 142.2C152.021 142.9 153.321 144.4 152.821 146.6C152.521 147.9 151.821 148.7 150.821 149.2C149.521 149.9 147.821 149.9 145.421 149.3C144.121 149 143.121 148.6 142.521 148.4L146.121 134.1ZM144.821 147.6C145.221 147.8 145.721 147.9 146.421 148.1C148.421 148.6 150.321 148.3 150.921 146.2C151.421 144.2 149.921 143 147.821 142.4L146.221 142L144.821 147.6ZM146.521 140.6L148.221 141C150.221 141.5 151.621 140.7 152.021 139.3C152.421 137.6 151.321 136.6 149.421 136.1C148.521 135.9 148.021 135.8 147.721 135.8L146.521 140.6Z" fill="white"/>
</svg>
