<?xml version="1.0" standalone="no"?>
<!DOCTYPE svg PUBLIC "-//W3C//DTD SVG 20010904//EN"
 "http://www.w3.org/TR/2001/REC-SVG-20010904/DTD/svg10.dtd">
<svg version="1.0" xmlns="http://www.w3.org/2000/svg"
 width="512.000000pt" height="512.000000pt" viewBox="0 0 512.000000 512.000000"
 preserveAspectRatio="xMidYMid meet">

<g transform="translate(0.000000,512.000000) scale(0.100000,-0.100000)"
fill="#660033" stroke="none">
<path d="M635 5014 c-6 -1 -26 -5 -46 -8 -46 -8 -116 -68 -140 -120 -24 -52
-24 -120 0 -171 21 -45 1896 -1938 1971 -1990 38 -26 53 -30 126 -34 70 -2 91
1 128 19 62 30 1970 1946 1997 2005 24 51 24 119 0 170 -20 44 -78 101 -120
116 -40 16 -125 12 -163 -6 -18 -9 -437 -420 -930 -913 l-898 -897 -897 896
c-494 494 -909 903 -923 910 -27 13 -89 27 -105 23z"/>
<path d="M119 2840 c-105 -55 -147 -187 -94 -290 21 -41 2350 -2377 2404
-2412 40 -25 54 -28 131 -28 77 0 91 3 131 28 54 35 2383 2371 2404 2412 54
104 10 236 -96 291 -47 24 -137 25 -182 3 -18 -9 -533 -516 -1144 -1127
l-1113 -1112 -1112 1112 c-612 611 -1127 1118 -1145 1127 -44 22 -138 20 -184
-4z"/>
</g>
</svg>
