<svg width="41" height="38" viewBox="0 0 41 38" fill="none" xmlns="http://www.w3.org/2000/svg">
<path d="M7.42085 15.857L15.1375 14.7506C15.9815 14.631 16.7049 14.1226 17.0968 13.375L20.5633 6.55677C20.6838 6.31753 20.925 6.28763 21.0154 6.28763C21.1059 6.28763 21.347 6.31753 21.4676 6.55677L24.8737 13.375C25.2656 14.1226 25.989 14.631 26.8331 14.7506L34.5497 15.857C34.821 15.8869 34.9114 16.0963 34.9416 16.186C34.9717 16.2757 35.0019 16.4551 34.821 16.6346L29.2445 21.9276C28.6115 22.5257 28.3402 23.3631 28.4909 24.2004L29.8172 31.6765C29.8474 31.9157 29.7268 32.0353 29.6364 32.0951C29.5459 32.155 29.3651 32.2746 29.0938 32.1251L22.191 28.5963C21.4374 28.2076 20.5331 28.2076 19.7796 28.5963L12.8768 32.1251C12.6356 32.2447 12.4246 32.1251 12.3342 32.0951C12.2438 32.0353 12.1232 31.8858 12.1533 31.6765L13.4796 24.2004C13.6303 23.3631 13.3591 22.5257 12.726 21.9276L7.14956 16.6346C6.9687 16.4551 6.99884 16.2757 7.02899 16.186C7.05913 16.0963 7.14956 15.8869 7.42085 15.857Z" fill="white"/>
<path d="M1.60287 16.425C0.397148 15.2587 1.0603 13.1953 2.74831 12.9561L13.0271 11.4609C13.6903 11.3712 14.263 10.9525 14.5644 10.3544L19.1462 1.14384C19.8998 -0.381281 22.0701 -0.381281 22.8237 1.14384L27.4356 10.3843C27.737 10.9824 28.3097 11.4011 28.9729 11.4908L39.2517 12.986C40.9096 13.2252 41.6029 15.2587 40.367 16.425L32.9216 23.6021C32.4394 24.0805 32.2284 24.7384 32.3188 25.3963L34.0972 35.5937C34.3987 37.2684 32.6202 38.5244 31.1131 37.7469L21.9194 32.9621C21.3165 32.6631 20.6232 32.6631 20.0204 32.9621L10.8267 37.7469C9.31953 38.5244 7.57122 37.2684 7.84251 35.5937L9.62096 25.4262C9.74154 24.7683 9.50039 24.0805 9.0181 23.632L1.60287 16.425ZM11.2788 23.4226C11.3994 23.5124 11.4296 23.6619 11.3994 23.8114L10.0731 31.2875C9.89225 32.2444 10.2841 33.2014 11.0678 33.7696C11.8817 34.3677 12.9367 34.4275 13.8109 33.9789L20.7137 30.4502C20.8644 30.3605 21.0452 30.3605 21.1959 30.4502L28.0987 33.9789C28.4906 34.1882 28.8825 34.2779 29.3045 34.2779C29.847 34.2779 30.3896 34.0985 30.8418 33.7696C31.6255 33.2014 32.0173 32.2444 31.8365 31.2875L30.5102 23.8114C30.48 23.6619 30.5403 23.5124 30.6308 23.4226L36.2977 18.1296C37.0211 17.4418 37.2623 16.4549 36.9608 15.5279C36.6594 14.6008 35.8455 13.913 34.8508 13.7635L27.1342 12.687C26.9834 12.657 26.8327 12.5673 26.7724 12.4178L23.306 5.5996C22.8538 4.73237 21.9797 4.19409 20.9849 4.19409C19.9902 4.19409 19.1161 4.73237 18.6639 5.5996L15.1975 12.4178C15.1372 12.5673 14.9864 12.657 14.8357 12.687L7.11908 13.7934C6.12435 13.9429 5.31049 14.6008 5.00905 15.5578C4.70762 16.4848 4.97891 17.4717 5.67221 18.1595L11.2788 23.4226Z" fill="white"/>
</svg>
