<svg width="31" height="29" viewBox="0 0 31 29" fill="none" xmlns="http://www.w3.org/2000/svg">
<path d="M28.4409 0.352809C26.9409 -0.447191 24.9409 0.152809 24.1409 1.75281L15.1409 19.8528L5.34087 10.7528C4.74087 10.1528 3.94087 9.85281 3.04087 9.95281C2.24087 9.95281 1.44087 10.3528 0.840872 10.9528C-0.359128 12.2528 -0.259128 14.2528 1.04087 15.4528L13.7409 27.2528C13.9409 27.5528 14.2409 27.7528 14.5409 27.9528C15.0409 28.1528 15.5409 28.3528 16.0409 28.3528C16.3409 28.3528 16.6409 28.3528 16.9409 28.2528C17.7409 28.0528 18.4409 27.4528 18.8409 26.6528L29.7409 4.65281C30.6409 3.05281 30.0409 1.15281 28.4409 0.352809Z" fill="#006635"/>
</svg>
